<?xml version="1.0" encoding="utf-8"?>
<!-- Generator: Adobe Illustrator 25.4.1, SVG Export Plug-In . SVG Version: 6.00 Build 0)  -->
<svg version="1.1" id="Layer_1" xmlns="http://www.w3.org/2000/svg" xmlns:xlink="http://www.w3.org/1999/xlink" x="0px" y="0px"
	 viewBox="0 0 3096 3096" style="enable-background:new 0 0 3096 3096;" xml:space="preserve">
<style type="text/css">
	.st0{fill:none;stroke:url(#SVGID_1_);stroke-width:30;stroke-miterlimit:10;}
	.st1{fill:none;stroke:url(#SVGID_00000020361013919219155250000001121637089526952328_);stroke-width:30;stroke-miterlimit:10;}
</style>
<linearGradient id="SVGID_1_" gradientUnits="userSpaceOnUse" x1="2578.3" y1="2042.3" x2="2578.3" y2="2042.3" gradientTransform="matrix(1 0 0 -1 0 3096)">
	<stop  offset="0" style="stop-color:#00FF99"/>
	<stop  offset="1" style="stop-color:#33CCFF"/>
</linearGradient>
<path class="st0" d="M2578.3,1053.7"/>
<text transform="matrix(1 0 0 1 -755.6523 981.7393)" style="font-family:'MyriadPro-Regular'; font-size:12px;">Lorem ipsum</text>
<linearGradient id="SVGID_00000181766369113855972390000009799950770329386940_" gradientUnits="userSpaceOnUse" x1="2360.2419" y1="1472.3885" x2="374.5568" y2="1472.3885">
	<stop  offset="0" style="stop-color:#00FF99"/>
	<stop  offset="1" style="stop-color:#33CCFF"/>
</linearGradient>
<path style="fill:none;stroke:url(#SVGID_00000181766369113855972390000009799950770329386940_);stroke-width:30;stroke-miterlimit:10;" d="
	M502.8,2399.8C547,1648.2,639.2,568.4,822.1,559.1c231-11.7,453.9,1706.3,488.3,1699.8c18.7-3.5,32.3-523.7-253.6-695
	c-267.6-160.3-647.9,74.8-666.8,28.2c-5.8-14.3,13.1-77.6,1257.8-713.6c24.4-12.4,23.7-12.1,37.1-19c191.5-98.1,421.5-220,423.7-216
	c2.8,5.1-413.6,139-535.3,469.6c-14,37.9-64.5,175.1-9.4,225.4c127,115.8,649.5-381.6,760.7-291.1c73.7,60-41.8,371.5-497.7,1117.6"
	/>
</svg>
